<?xml version="1.0" encoding="iso-8859-1"?>
<!-- Generator: Adobe Illustrator 19.0.0, SVG Export Plug-In . SVG Version: 6.00 Build 0)  -->
<svg width = "40" height = "40" version="1.1" id="Layer_1" xmlns="http://www.w3.org/2000/svg" xmlns:xlink="http://www.w3.org/1999/xlink" x="0px" y="0px"
	 viewBox="0 0 330 330" style="enable-background:new 0 0 330 330;" xml:space="preserve">
<g id="XMLID_22_">
	<path id="XMLID_23_" d="M308.625,70.576c-3.779-2.842-8.676-3.735-13.216-2.41c-8.328,2.43-16.824,3.662-25.251,3.662
		c-24.195,0-48.153-7.088-65.733-19.445C188.902,41.471,180,27.846,180,15c0-8.284-6.717-15-15-15c-8.285,0-15,6.716-15,15
		c0,12.846-8.903,26.471-24.426,37.383c-17.58,12.357-41.538,19.445-65.732,19.445c-8.428,0-16.924-1.232-25.251-3.662
		c-4.54-1.324-9.436-0.432-13.216,2.41c-3.779,2.842-5.998,7.299-5.986,12.027c0.203,79.771,35.262,142.536,56.142,172.85
		c14.604,21.201,30.958,39.488,47.296,52.888C130.874,318.222,148.664,330,165,330c16.334,0,34.125-11.778,46.172-21.659
		c16.338-13.399,32.693-31.686,47.296-52.888c20.881-30.314,55.94-93.079,56.143-172.85
		C314.623,77.875,312.404,73.418,308.625,70.576z M108.045,225.185c0-31.458,25.5-56.956,56.955-56.956
		c-20.221,0-36.615-16.393-36.615-36.614C128.385,111.392,144.779,95,165,95c20.221,0,36.615,16.392,36.615,36.614
		c0,20.222-16.395,36.614-36.615,36.614c31.455,0,56.955,25.498,56.955,56.956H108.045z"/>
</g>
<g>
</g>
<g>
</g>
<g>
</g>
<g>
</g>
<g>
</g>
<g>
</g>
<g>
</g>
<g>
</g>
<g>
</g>
<g>
</g>
<g>
</g>
<g>
</g>
<g>
</g>
<g>
</g>
<g>
</g>
</svg>
